#N canvas 689 125 785 810 12;
#X obj 30 88 inlet toggle;
#X obj 47 141 inlet speed;
#X obj 30 185 metro 144;
#X obj 149 133 sel 0;
#X msg 149 185 0;
#X obj 30 225 f;
#X obj 86 225 + 1;
#X obj 30 305 outlet cnt;
#X obj 30 263 % 16;
#X connect 0 0 2 0;
#X connect 0 0 3 0;
#X connect 1 0 2 1;
#X connect 2 0 5 0;
#X connect 3 0 4 0;
#X connect 4 0 5 1;
#X connect 5 0 6 0;
#X connect 5 0 8 0;
#X connect 6 0 5 1;
#X connect 8 0 7 0;
